HIERARCHY
ROOT Model
{
	OFFSET 0 0 0
	CHANNELS 6 Xposition Yposition Zposition Zrotation Xrotation Yrotation
	JOINT Model1
	{
		OFFSET 0 -2.25479 2.99384
		CHANNELS 3 Zrotation Xrotation Yrotation
		JOINT Model2
		{
			OFFSET 12.111 0 0
			CHANNELS 3 Zrotation Xrotation Yrotation
			JOINT Model3
			{
				OFFSET 11.5502 0 0
				CHANNELS 3 Zrotation Xrotation Yrotation
				JOINT Model4
				{
					OFFSET 11.781 0 0
					CHANNELS 3 Zrotation Xrotation Yrotation
					JOINT Model5
					{
						OFFSET 20.0601 0 0
						CHANNELS 3 Zrotation Xrotation Yrotation
						JOINT Model6
						{
							OFFSET 11.1962 0 0
							CHANNELS 3 Zrotation Xrotation Yrotation
							End Site
							{
								OFFSET 0 0 0
							}
						}
					}
					JOINT Model7
					{
						OFFSET 10.8223 0.417534 3.51114
						CHANNELS 3 Zrotation Xrotation Yrotation
						JOINT Model8
						{
							OFFSET -6.07944 0 0
							CHANNELS 3 Zrotation Xrotation Yrotation
							JOINT Model9
							{
								OFFSET -0.277405 10.39 -0.051239
								CHANNELS 3 Zrotation Xrotation Yrotation
								JOINT Model10
								{
									OFFSET -3.43909 -0.282043 1.86679
									CHANNELS 3 Zrotation Xrotation Yrotation
									JOINT Model11
									{
										OFFSET 13.0269 0 0
										CHANNELS 3 Zrotation Xrotation Yrotation
										JOINT Model12
										{
											OFFSET 10.8866 0 0
											CHANNELS 3 Zrotation Xrotation Yrotation
											JOINT Model13
											{
												OFFSET 16.7317 0 0
												CHANNELS 3 Zrotation Xrotation Yrotation
												JOINT Model14
												{
													OFFSET 11.8292 0 0
													CHANNELS 3 Zrotation Xrotation Yrotation
													JOINT Model15
													{
														OFFSET 4.82751 -3.73566 -0.836517
														CHANNELS 3 Zrotation Xrotation Yrotation
														JOINT Model16
														{
															OFFSET 3.75311 -0.0582886 -0.0186462
															CHANNELS 3 Zrotation Xrotation Yrotation
															JOINT Model17
															{
																OFFSET 2.88689 0.0192337 0.014801
																CHANNELS 3 Zrotation Xrotation Yrotation
																End Site
																{
																	OFFSET 0 0 0
																}
															}
														}
													}
													JOINT Model18
													{
														OFFSET 9.72197 -3.06458 0.23877
														CHANNELS 3 Zrotation Xrotation Yrotation
														JOINT Model19
														{
															OFFSET 4.61131 0 0
															CHANNELS 3 Zrotation Xrotation Yrotation
															JOINT Model20
															{
																OFFSET 2.8969 -7.62939e-006 0
																CHANNELS 3 Zrotation Xrotation Yrotation
																End Site
																{
																	OFFSET 0 0 0
																}
															}
														}
													}
													JOINT Model21
													{
														OFFSET 9.54431 -0.745064 0.588928
														CHANNELS 3 Zrotation Xrotation Yrotation
														JOINT Model22
														{
															OFFSET 5.33978 0 0
															CHANNELS 3 Zrotation Xrotation Yrotation
															JOINT Model23
															{
																OFFSET 3.03619 7.62939e-006 0
																CHANNELS 3 Zrotation Xrotation Yrotation
																End Site
																{
																	OFFSET 0 0 0
																}
															}
														}
													}
													JOINT Model24
													{
														OFFSET 9.47758 1.51286 0.485107
														CHANNELS 3 Zrotation Xrotation Yrotation
														JOINT Model25
														{
															OFFSET 4.96136 7.62939e-006 0
															CHANNELS 3 Zrotation Xrotation Yrotation
															JOINT Model26
															{
																OFFSET 2.51965 0 0
																CHANNELS 3 Zrotation Xrotation Yrotation
																End Site
																{
																	OFFSET 0 0 0
																}
															}
														}
													}
													JOINT Model27
													{
														OFFSET 9.34247 3.34117 -0.239288
														CHANNELS 3 Zrotation Xrotation Yrotation
														JOINT Model28
														{
															OFFSET 3.28259 2.28882e-005 0
															CHANNELS 3 Zrotation Xrotation Yrotation
															JOINT Model29
															{
																OFFSET 2.1292 0 0
																CHANNELS 3 Zrotation Xrotation Yrotation
																End Site
																{
																	OFFSET 0 0 0
																}
															}
														}
													}
												}
											}
										}
									}
								}
							}
						}
					}
					JOINT Model30
					{
						OFFSET 10.8223 0.4179 -3.51108
						CHANNELS 3 Zrotation Xrotation Yrotation
						JOINT Model31
						{
							OFFSET 6.07944 0 0
							CHANNELS 3 Zrotation Xrotation Yrotation
							JOINT Model32
							{
								OFFSET 0.277405 -10.39 0.051239
								CHANNELS 3 Zrotation Xrotation Yrotation
								JOINT Model33
								{
									OFFSET 3.43909 0.282043 -1.86679
									CHANNELS 3 Zrotation Xrotation Yrotation
									JOINT Model34
									{
										OFFSET -13.0269 0 0
										CHANNELS 3 Zrotation Xrotation Yrotation
										JOINT Model35
										{
											OFFSET -10.8866 0 0
											CHANNELS 3 Zrotation Xrotation Yrotation
											JOINT Model36
											{
												OFFSET -16.7317 0 0
												CHANNELS 3 Zrotation Xrotation Yrotation
												JOINT Model37
												{
													OFFSET -11.8292 0 0
													CHANNELS 3 Zrotation Xrotation Yrotation
													JOINT Model38
													{
														OFFSET -4.82751 3.73566 0.836517
														CHANNELS 3 Zrotation Xrotation Yrotation
														JOINT Model39
														{
															OFFSET -3.75311 0.0582886 0.0186462
															CHANNELS 3 Zrotation Xrotation Yrotation
															JOINT Model40
															{
																OFFSET -2.88687 -0.0192337 -0.014801
																CHANNELS 3 Zrotation Xrotation Yrotation
																End Site
																{
																	OFFSET 0 0 0
																}
															}
														}
													}
													JOINT Model41
													{
														OFFSET -9.72198 3.06459 -0.23877
														CHANNELS 3 Zrotation Xrotation Yrotation
														JOINT Model42
														{
															OFFSET -4.6113 0 0
															CHANNELS 3 Zrotation Xrotation Yrotation
															JOINT Model43
															{
																OFFSET -2.89691 0 0
																CHANNELS 3 Zrotation Xrotation Yrotation
																End Site
																{
																	OFFSET 0 0 0
																}
															}
														}
													}
													JOINT Model44
													{
														OFFSET -9.54431 0.745064 -0.588928
														CHANNELS 3 Zrotation Xrotation Yrotation
														JOINT Model45
														{
															OFFSET -5.33978 0 0
															CHANNELS 3 Zrotation Xrotation Yrotation
															JOINT Model46
															{
																OFFSET -3.03619 -1.52588e-005 0
																CHANNELS 3 Zrotation Xrotation Yrotation
																End Site
																{
																	OFFSET 0 0 0
																}
															}
														}
													}
													JOINT Model47
													{
														OFFSET -9.4776 -1.51286 -0.485107
														CHANNELS 3 Zrotation Xrotation Yrotation
														JOINT Model48
														{
															OFFSET -4.96136 -1.52588e-005 0
															CHANNELS 3 Zrotation Xrotation Yrotation
															JOINT Model49
															{
																OFFSET -2.51965 0 0
																CHANNELS 3 Zrotation Xrotation Yrotation
																End Site
																{
																	OFFSET 0 0 0
																}
															}
														}
													}
													JOINT Model50
													{
														OFFSET -9.34247 -3.34118 0.239288
														CHANNELS 3 Zrotation Xrotation Yrotation
														JOINT Model51
														{
															OFFSET -3.28259 -2.28882e-005 0
															CHANNELS 3 Zrotation Xrotation Yrotation
															JOINT Model52
															{
																OFFSET -2.12921 0 0
																CHANNELS 3 Zrotation Xrotation Yrotation
																End Site
																{
																	OFFSET 0 0 0
																}
															}
														}
													}
												}
											}
										}
									}
								}
							}
						}
					}
				}
			}
		}
	}
	JOINT Model53
	{
		OFFSET 4.38025 -2.14632 -1.11517
		CHANNELS 3 Zrotation Xrotation Yrotation
		JOINT Model54
		{
			OFFSET 0 0 4.94998
			CHANNELS 3 Zrotation Xrotation Yrotation
			JOINT Model55
			{
				OFFSET 18.5642 0 0
				CHANNELS 3 Zrotation Xrotation Yrotation
				JOINT Model56
				{
					OFFSET 21.2884 0 0
					CHANNELS 3 Zrotation Xrotation Yrotation
					JOINT Model57
					{
						OFFSET 30.261 0 0
						CHANNELS 3 Zrotation Xrotation Yrotation
						JOINT Model58
						{
							OFFSET 11.7259 0 0
							CHANNELS 3 Zrotation Xrotation Yrotation
							JOINT Model59
							{
								OFFSET 10.682 0 0
								CHANNELS 3 Zrotation Xrotation Yrotation
								End Site
								{
									OFFSET 0 0 0
								}
							}
						}
					}
				}
			}
		}
	}
	JOINT Model60
	{
		OFFSET -4.38025 -2.14632 -1.11517
		CHANNELS 3 Zrotation Xrotation Yrotation
		JOINT Model61
		{
			OFFSET 0 0 -4.94998
			CHANNELS 3 Zrotation Xrotation Yrotation
			JOINT Model62
			{
				OFFSET -18.5642 0 0
				CHANNELS 3 Zrotation Xrotation Yrotation
				JOINT Model63
				{
					OFFSET -21.2884 0 0
					CHANNELS 3 Zrotation Xrotation Yrotation
					JOINT Model64
					{
						OFFSET -30.261 0 0
						CHANNELS 3 Zrotation Xrotation Yrotation
						JOINT Model65
						{
							OFFSET -11.7259 0 0
							CHANNELS 3 Zrotation Xrotation Yrotation
							JOINT Model66
							{
								OFFSET -10.682 0 0
								CHANNELS 3 Zrotation Xrotation Yrotation
								End Site
								{
									OFFSET 0 0 0
								}
							}
						}
					}
				}
			}
		}
	}
}
MOTION
Frames: 4
Frame Time: 0.033333
-319.486 175.188 -337.135 174.863 -88.7008 176.804 -180 4.29621e-031 -90 0.141437 0.264687 -0.133449 0.283491 0.528605 -0.267556 0.283491 0.529042 -0.267558 -1.42489 0.753969 1.54276 14.826 1.13288 0.762852 120.092 75.5343 58.4939 12.1363 3.74247 -0.965513 -167.277 84.4999 48.8109 165.756 -10.8736 -34.7748 3.25352e-006 14.8388 3.10127e-005 0.00790336 0.320492 1.56765 1.94612e-007 0.544767 5.11904e-008 -0.460837 -0.00363819 0.904631 -72.0648 39.0385 39.3397 33.3638 2.10362 14.835 0.588947 0.308273 6.35287 -99.6409 81.413 100.35 -0.0181409 2.77922e-005 -0.117315 -0.124139 0.00241114 -0.799296 -79.8382 79.5773 80.5374 -0.000225769 -0.000220909 2.21964e-005 -0.000956216 0.000122913 -2.7318e-005 -66.7416 80.4058 67.2171 -0.000437124 1.59591e-005 -2.73192e-005 -0.000136593 -0.000109273 -5.46394e-005 -6.42159 81.2158 8.01779 -0.000218558 1.69153e-005 0.00021214 0.000901595 -0.000184792 -0.000218566 -59.9282 75.5373 58.5147 11.4659 10.5696 0.554129 -167.277 84.4999 48.8109 173.065 -21.6844 -25.2406 7.17922e-006 -0.419774 2.90781e-005 -1.54092 10.0493 -0.123907 -6.03538e-006 15.102 2.63827e-006 1.23433 0.00627281 0.582281 -72.0648 39.0385 39.3397 33.3638 2.10361 14.835 0.588946 0.308273 6.35287 -99.6409 81.413 100.35 -0.0181409 3.00773e-005 -0.117315 -0.124139 0.00241113 -0.799296 -79.8382 79.5773 80.5374 -0.000260646 -0.000218567 2.35755e-005 -0.000956226 0.000122995 -2.73139e-005 -66.7416 80.4058 67.2171 -0.000437132 1.48803e-005 -2.73156e-005 -0.000136603 -0.000109284 -5.46346e-005 -6.42159 81.2158 8.01779 -0.000218565 1.95784e-005 0.000212302 0.000901585 -0.000191246 -0.000218559 0.000811311 0.56661 89.91 -14.8005 -2.74013 -9.5431 7.56619e-007 2.03455 -9.43642e-009 34.7521 -4.01412 -2.26648 -1.92629e-007 -6.09173 -1.98351e-007 -67.0719 -2.64959 0.567488 -35.5983 -0.294498 0.015384 -180 -0.566579 -90.09 -12.8355 -3.66849 -5.36913 -6.51025e-007 -1.85215 -1.97116e-008 31.2828 -3.85211 -2.25029 2.43061e-007 -5.84171 -3.67836e-007 -66.8741 -6.49466 2.70068 -35.4947 1.06335e-007 -1.83647e-008 
-319.5 175.188 -337.138 177.597 -88.6779 179.602 -180 4.29621e-031 -90 0.162912 0.264703 -0.122032 0.32639 0.528621 -0.244821 0.32639 0.529058 -0.244823 -1.64488 0.750326 1.35836 14.8568 1.1031 0.993069 120.092 75.5343 58.4939 11.8803 3.23659 -1.01709 -167.277 84.4999 48.8109 165.186 -10.5256 -34.9762 3.12801e-006 15.0627 3.1045e-005 0.00680416 0.369155 1.62316 1.94547e-007 0.617782 5.11911e-008 -0.740793 -0.00501781 0.776166 -72.0648 39.0385 39.3397 33.3638 2.10362 14.835 0.588947 0.308273 6.35287 -99.6409 81.413 100.35 -0.0181409 2.77922e-005 -0.117315 -0.124139 0.00241114 -0.799296 -79.8382 79.5773 80.5374 -0.000225769 -0.000220909 2.21964e-005 -0.000956216 0.000122913 -2.7318e-005 -66.7416 80.4058 67.2171 -0.000437124 1.59591e-005 -2.73192e-005 -0.000136593 -0.000109273 -5.46394e-005 -6.42159 81.2158 8.01779 -0.000218558 1.69153e-005 0.00021214 0.000901595 -0.000184792 -0.000218566 -59.9282 75.5373 58.5147 11.5816 10.4527 0.501044 -167.277 84.4999 48.8109 172.889 -21.588 -25.0729 7.17736e-006 -0.416093 2.90781e-005 -1.54741 9.87962 -0.120612 -6.02325e-006 14.8473 2.63514e-006 1.27034 0.00651729 0.587827 -72.0648 39.0385 39.3397 33.3638 2.10361 14.835 0.588946 0.308273 6.35287 -99.6409 81.413 100.35 -0.0181409 3.00773e-005 -0.117315 -0.124139 0.00241113 -0.799296 -79.8382 79.5773 80.5374 -0.000260646 -0.000218567 2.35755e-005 -0.000956226 0.000122995 -2.73139e-005 -66.7416 80.4058 67.2171 -0.000437132 1.48803e-005 -2.73156e-005 -0.000136603 -0.000109284 -5.46346e-005 -6.42159 81.2158 8.01779 -0.000218565 1.95784e-005 0.000212302 0.000901585 -0.000191246 -0.000218559 0.000811311 0.56661 89.91 -14.84 -3.02417 -9.8807 7.56583e-007 1.8175 -9.43522e-009 34.7841 -3.80963 -2.11011 -1.91558e-007 -5.78418 -1.9824e-007 -67.1374 -2.43391 0.444894 -35.6095 -0.326133 0.0169725 -180 -0.566579 -90.09 -12.7679 -3.57438 -5.23624 -6.51005e-007 -1.79363 -1.9711e-008 31.1908 -3.90289 -2.26569 2.42569e-007 -5.91783 -3.67887e-007 -66.8405 -6.4861 2.69961 -35.4947 8.20068e-008 -1.50551e-008 
-319.492 175.186 -337.142 -178.707 -88.6274 -176.692 -180 4.29621e-031 -90 0.179462 0.276749 -0.131682 0.359562 0.552646 -0.264234 0.359562 0.553083 -0.264237 -1.62005 0.725049 1.3755 14.634 1.08554 1.08498 120.092 75.5343 58.4939 11.7746 3.04261 -1.03607 -167.277 84.4999 48.8109 164.912 -10.3867 -35.1615 3.07856e-006 15.1508 3.10579e-005 0.00401222 0.477001 1.73772 1.94402e-007 0.77961 5.11928e-008 -0.897326 -0.00464615 0.593312 -72.0648 39.0385 39.3397 33.3638 2.10362 14.835 0.588947 0.308273 6.35287 -99.6409 81.413 100.35 -0.0181409 2.77922e-005 -0.117315 -0.124139 0.00241114 -0.799296 -79.8382 79.5773 80.5374 -0.000225769 -0.000220909 2.21964e-005 -0.000956216 0.000122913 -2.7318e-005 -66.7416 80.4058 67.2171 -0.000437124 1.59591e-005 -2.73192e-005 -0.000136593 -0.000109273 -5.46394e-005 -6.42159 81.2158 8.01779 -0.000218558 1.69153e-005 0.00021214 0.000901595 -0.000184792 -0.000218566 -59.9282 75.5373 58.5147 11.555 10.4098 0.49918 -167.277 84.4999 48.8109 172.88 -21.5601 -24.9732 7.17669e-006 -0.414789 2.90781e-005 -1.54911 9.83586 -0.119757 -6.02012e-006 14.7816 2.63434e-006 1.16044 0.00465554 0.459665 -72.0648 39.0385 39.3397 33.3638 2.10361 14.835 0.588946 0.308273 6.35287 -99.6409 81.413 100.35 -0.0181409 3.00773e-005 -0.117315 -0.124139 0.00241113 -0.799296 -79.8382 79.5773 80.5374 -0.000260646 -0.000218567 2.35755e-005 -0.000956226 0.000122995 -2.73139e-005 -66.7416 80.4058 67.2171 -0.000437132 1.48803e-005 -2.73156e-005 -0.000136603 -0.000109284 -5.46346e-005 -6.42159 81.2158 8.01779 -0.000218565 1.95784e-005 0.000212302 0.000901585 -0.000191246 -0.000218559 0.000811311 0.56661 89.91 -14.7602 -3.07616 -9.90102 7.56575e-007 1.76456 -9.43495e-009 34.7564 -3.79656 -2.13504 -1.9149e-007 -5.76461 -1.98233e-007 -67.1488 -2.485 0.472214 -35.6072 -0.319781 0.0166545 -180 -0.566579 -90.09 -12.7386 -3.52754 -5.21124 -6.50986e-007 -1.73753 -1.97104e-008 31.1936 -3.90533 -2.24013 2.42547e-007 -5.92138 -3.67889e-007 -66.8167 -6.41218 2.66139 -35.4947 4.30193e-008 -1.0477e-008 
-319.482 175.189 -337.171 -176.89 -88.6097 -174.892 -180 4.29621e-031 -90 0.174139 0.288489 -0.148534 0.349027 0.576087 -0.297949 0.349027 0.576524 -0.297952 -1.48238 0.699597 1.39495 14.4354 1.07067 1.24511 120.092 75.5343 58.4939 11.8031 3.30559 -0.988393 -167.277 84.4999 48.8109 165.147 -10.5327 -35.2465 3.10779e-006 15.0988 3.10503e-005 0.00212253 0.540996 1.7814 1.94317e-007 0.875647 5.11941e-008 -0.966132 -0.00411611 0.488194 -72.0648 39.0385 39.3397 33.3638 2.10362 14.835 0.588947 0.308273 6.35287 -99.6409 81.413 100.35 -0.0181409 2.77922e-005 -0.117315 -0.124139 0.00241114 -0.799296 -79.8382 79.5773 80.5374 -0.000225769 -0.000220909 2.21964e-005 -0.000956216 0.000122913 -2.7318e-005 -66.7416 80.4058 67.2171 -0.000437124 1.59591e-005 -2.73192e-005 -0.000136593 -0.000109273 -5.46394e-005 -6.42159 81.2158 8.01779 -0.000218558 1.69153e-005 0.00021214 0.000901595 -0.000184792 -0.000218566 -59.9282 75.5373 58.5147 11.3677 10.4402 0.552947 -167.277 84.4999 48.8109 172.953 -21.6024 -25.0525 7.17753e-006 -0.416432 2.90781e-005 -1.54843 9.85413 -0.120095 -6.02143e-006 14.809 2.63467e-006 1.04084 0.00377122 0.415139 -72.0648 39.0385 39.3397 33.3638 2.10361 14.835 0.588946 0.308273 6.35287 -99.6409 81.413 100.35 -0.0181409 3.00773e-005 -0.117315 -0.124139 0.00241113 -0.799296 -79.8382 79.5773 80.5374 -0.000260646 -0.000218567 2.35755e-005 -0.000956226 0.000122995 -2.73139e-005 -66.7416 80.4058 67.2171 -0.000437132 1.48803e-005 -2.73156e-005 -0.000136603 -0.000109284 -5.46346e-005 -6.42159 81.2158 8.01779 -0.000218565 1.95784e-005 0.000212302 0.000901585 -0.000191246 -0.000218559 0.000811311 0.56661 89.91 -14.7206 -2.97589 -9.76704 7.56586e-007 1.83548 -9.43531e-009 34.7393 -3.88846 -2.20655 -1.91971e-007 -5.90281 -1.98282e-007 -67.1319 -2.55231 0.510213 -35.5913 -0.274585 0.0143776 -180 -0.566579 -90.09 -12.7769 -3.50728 -5.22421 -6.50973e-007 -1.70155 -1.971e-008 31.2378 -3.90415 -2.22054 2.42558e-007 -5.91963 -3.67888e-007 -66.7724 -6.29771 2.60291 -35.4947 -9.76561e-009 -4.70517e-009 
